<svg xmlns="http://www.w3.org/2000/svg"><symbol id="adjust" viewBox="0 0 512 512"><path d="M8 256c0 136.966 111.033 248 248 248s248-111.034 248-248S392.966 8 256 8 8 119.033 8 256zm248 184V72c101.705 0 184 82.311 184 184 0 101.705-82.311 184-184 184z"/></symbol><symbol id="anchor" viewBox="0 0 576 512"><path d="M12.971 352h32.394C67.172 454.735 181.944 512 288 512c106.229 0 220.853-57.38 242.635-160h32.394c10.691 0 16.045-12.926 8.485-20.485l-67.029-67.029c-4.686-4.686-12.284-4.686-16.971 0l-67.029 67.029c-7.56 7.56-2.206 20.485 8.485 20.485h35.146c-20.29 54.317-84.963 86.588-144.117 94.015V256h52c6.627 0 12-5.373 12-12v-40c0-6.627-5.373-12-12-12h-52v-5.47c37.281-13.178 63.995-48.725 64-90.518C384.005 43.772 341.605.738 289.37.01 235.723-.739 192 42.525 192 96c0 41.798 26.716 77.35 64 90.53V192h-52c-6.627 0-12 5.373-12 12v40c0 6.627 5.373 12 12 12h52v190.015c-58.936-7.399-123.82-39.679-144.117-94.015h35.146c10.691 0 16.045-12.926 8.485-20.485l-67.029-67.029c-4.686-4.686-12.284-4.686-16.971 0L4.485 331.515C-3.074 339.074 2.28 352 12.971 352zM288 64c17.645 0 32 14.355 32 32s-14.355 32-32 32-32-14.355-32-32 14.355-32 32-32z"/></symbol><symbol id="angle-up" viewBox="0 0 320 512"><path d="M177 159.7l136 136c9.4 9.4 9.4 24.6 0 33.9l-22.6 22.6c-9.4 9.4-24.6 9.4-33.9 0L160 255.9l-96.4 96.4c-9.4 9.4-24.6 9.4-33.9 0L7 329.7c-9.4-9.4-9.4-24.6 0-33.9l136-136c9.4-9.5 24.6-9.5 34-.1z"/></symbol><symbol id="bars" viewBox="0 0 448 512"><path d="M16 132h416c8.837 0 16-7.163 16-16V76c0-8.837-7.163-16-16-16H16C7.163 60 0 67.163 0 76v40c0 8.837 7.163 16 16 16zm0 160h416c8.837 0 16-7.163 16-16v-40c0-8.837-7.163-16-16-16H16c-8.837 0-16 7.163-16 16v40c0 8.837 7.163 16 16 16zm0 160h416c8.837 0 16-7.163 16-16v-40c0-8.837-7.163-16-16-16H16c-8.837 0-16 7.163-16 16v40c0 8.837 7.163 16 16 16z"/></symbol><symbol id="chevron-left" viewBox="0 0 320 512"><path d="M34.52 239.03L228.87 44.69c9.37-9.37 24.57-9.37 33.94 0l22.67 22.67c9.36 9.36 9.37 24.52.04 33.9L131.49 256l154.02 154.75c9.34 9.38 9.32 24.54-.04 33.9l-22.67 22.67c-9.37 9.37-24.57 9.37-33.94 0L34.52 272.97c-9.37-9.37-9.37-24.57 0-33.94z"/></symbol><symbol id="chevron-right" viewBox="0 0 320 512"><path d="M285.476 272.971L91.132 467.314c-9.373 9.373-24.569 9.373-33.941 0l-22.667-22.667c-9.357-9.357-9.375-24.522-.04-33.901L188.505 256 34.484 101.255c-9.335-9.379-9.317-24.544.04-33.901l22.667-22.667c9.373-9.373 24.569-9.373 33.941 0L285.475 239.03c9.373 9.372 9.373 24.568.001 33.941z"/></symbol><symbol id="clock" viewBox="0 0 372.96 372.96"><path d="M186.48 0C83.49 0 0 83.49 0 186.48s83.49 186.48 186.48 186.48 186.48-83.49 186.48-186.48C372.828 83.545 289.415.132 186.48 0zm8 356.56v-32.8a8 8 0 0 0-16 0v32.8C90.759 352.372 20.588 282.201 16.4 194.48h32.8a8 8 0 0 0 0-16H16.4C20.588 90.759 90.759 20.588 178.48 16.4v32.8a8 8 0 0 0 16 0V16.4c87.721 4.188 157.892 74.359 162.08 162.08h-32.8a8 8 0 0 0 0 16h32.88c-4.191 87.75-74.408 157.932-162.16 162.08z"/><path d="M270.88 260.88l-76.4-77.68v-80.72a8 8 0 0 0-16 0v84a8 8 0 0 0 2.32 5.6l78.64 80a8.005 8.005 0 1 0 11.44-11.2z"/></symbol><symbol id="cog" viewBox="0 0 512 512"><path d="M444.788 291.1l42.616 24.599c4.867 2.809 7.126 8.618 5.459 13.985-11.07 35.642-29.97 67.842-54.689 94.586a12.016 12.016 0 0 1-14.832 2.254l-42.584-24.595a191.577 191.577 0 0 1-60.759 35.13v49.182a12.01 12.01 0 0 1-9.377 11.718c-34.956 7.85-72.499 8.256-109.219.007-5.49-1.233-9.403-6.096-9.403-11.723v-49.184a191.555 191.555 0 0 1-60.759-35.13l-42.584 24.595a12.016 12.016 0 0 1-14.832-2.254c-24.718-26.744-43.619-58.944-54.689-94.586-1.667-5.366.592-11.175 5.459-13.985L67.212 291.1a193.48 193.48 0 0 1 0-70.199l-42.616-24.599c-4.867-2.809-7.126-8.618-5.459-13.985 11.07-35.642 29.97-67.842 54.689-94.586a12.016 12.016 0 0 1 14.832-2.254l42.584 24.595a191.577 191.577 0 0 1 60.759-35.13V25.759a12.01 12.01 0 0 1 9.377-11.718c34.956-7.85 72.499-8.256 109.219-.007 5.49 1.233 9.403 6.096 9.403 11.723v49.184a191.555 191.555 0 0 1 60.759 35.13l42.584-24.595a12.016 12.016 0 0 1 14.832 2.254c24.718 26.744 43.619 58.944 54.689 94.586 1.667 5.366-.592 11.175-5.459 13.985L444.788 220.9a193.485 193.485 0 0 1 0 70.2zM336 256c0-44.112-35.888-80-80-80s-80 35.888-80 80 35.888 80 80 80 80-35.888 80-80z"/></symbol><symbol id="contact" viewBox="0 0 44 44"><path d="M43 6H1a1 1 0 0 0-1 1v30a1 1 0 0 0 1 1h42a1 1 0 0 0 1-1V7a1 1 0 0 0-1-1zm-1 27.581L29.612 21.194l-1.414 1.414L41.59 36H2.41l13.392-13.392-1.414-1.414L2 33.581V8h40v25.581z"/><path d="M39.979 8L22 25.979 4.021 8H2v.807L21.293 28.1a.999.999 0 0 0 1.414 0L42 8.807V8h-2.021z"/></symbol><symbol id="home" viewBox="0 0 27.02 27.02"><g fill="#030104"><path d="M3.674 24.876s-.024.604.566.604l6.811-.008.01-5.581s-.096-.92.797-.92h2.826c1.056 0 .991.92.991.92l-.012 5.563h6.667c.749 0 .715-.752.715-.752V14.413l-9.396-8.358-9.975 8.358v10.463z"/><path d="M0 13.635s.847 1.561 2.694 0l11.038-9.338 10.349 9.28c2.138 1.542 2.939 0 2.939 0L13.732 1.54 0 13.635zm23.83-9.36h-2.662l.011 3.228 2.651 2.249z"/></g></symbol><symbol id="like" viewBox="0 0 512.001 512.001"><path d="M472.367 71.829c-25.598-25.599-59.635-39.697-95.837-39.697s-70.237 14.098-95.837 39.697A135.49 135.49 0 0 0 256 105.692a135.54 135.54 0 0 0-24.693-33.863c-25.598-25.599-59.635-39.697-95.837-39.697-36.202 0-70.238 14.098-95.837 39.697-52.845 52.845-52.845 138.828 0 191.674L256 479.869l216.367-216.367c52.845-52.845 52.845-138.829 0-191.673z"/></symbol><symbol id="line-chart" viewBox="0 0 486.742 486.742"><path d="M33 362.371v78.9c0 4.8 3.9 8.8 8.8 8.8h61c4.8 0 8.8-3.9 8.8-8.8v-138.8l-44.3 44.3c-9.4 9.3-21.4 14.7-34.3 15.6zm109-60.9v139.8c0 4.8 3.9 8.8 8.8 8.8h61c4.8 0 8.8-3.9 8.8-8.8v-82.3c-13.9-.3-26.9-5.8-36.7-15.6l-41.9-41.9zm109 48.8v91c0 4.8 3.9 8.8 8.8 8.8h61c4.8 0 8.8-3.9 8.8-8.8v-167.9l-69.9 69.9c-2.7 2.7-5.6 5-8.7 7zm181.7-180.1l-72.7 72.7v198.4c0 4.8 3.9 8.8 8.8 8.8h61c4.8 0 8.8-3.9 8.8-8.8v-265.6c-2-1.7-3.5-3.2-4.6-4.2l-1.3-1.3z"/><path d="M482.6 41.371c-2.9-3.1-7.3-4.7-12.9-4.7h-1.6c-28.4 1.3-56.7 2.7-85.1 4-3.8.2-9 .4-13.1 4.5-1.3 1.3-2.3 2.8-3.1 4.6-4.2 9.1 1.7 15 4.5 17.8l7.1 7.2c4.9 5 9.9 10 14.9 14.9l-171.6 171.7-77.1-77.1c-4.6-4.6-10.8-7.2-17.4-7.2-6.6 0-12.7 2.6-17.3 7.2L7.2 286.871c-9.6 9.6-9.6 25.1 0 34.7l4.6 4.6c4.6 4.6 10.8 7.2 17.4 7.2s12.7-2.6 17.3-7.2l80.7-80.7 77.1 77.1c4.6 4.6 10.8 7.2 17.4 7.2 6.6 0 12.7-2.6 17.4-7.2l193.6-193.6 21.9 21.8c2.6 2.6 6.2 6.2 11.7 6.2 2.3 0 4.6-.6 7-1.9 1.6-.9 3-1.9 4.2-3.1 4.3-4.3 5.1-9.8 5.3-14.1.8-18.4 1.7-36.8 2.6-55.3l1.3-27.7c.3-5.8-1-10.3-4.1-13.5z"/></symbol><symbol id="man-user" viewBox="0 0 350 350"><path d="M175 171.173c38.914 0 70.463-38.318 70.463-85.586C245.463 38.318 235.105 0 175 0s-70.465 38.318-70.465 85.587c0 47.268 31.549 85.586 70.465 85.586zM41.909 301.853c-.012-2.882-.024-.812 0 0zm266.176 2.251c.038-.789.013-5.474 0 0z"/><path d="M307.935 298.397c-1.305-82.342-12.059-105.805-94.352-120.657 0 0-11.584 14.761-38.584 14.761s-38.586-14.761-38.586-14.761C55.018 192.43 43.61 215.545 42.11 295.722c-.123 6.547-.18 6.891-.202 6.131.005 1.424.011 4.058.011 8.651 0 0 19.592 39.496 133.08 39.496 113.486 0 133.08-39.496 133.08-39.496 0-2.951.002-5.003.005-6.399-.022.47-.066-.441-.149-5.708z"/></symbol><symbol id="phone" viewBox="0 0 512 512"><path d="M493.397 24.615l-104-23.997c-11.314-2.611-22.879 3.252-27.456 13.931l-48 111.997a24 24 0 0 0 6.862 28.029l60.617 49.596c-35.973 76.675-98.938 140.508-177.249 177.248l-49.596-60.616a24 24 0 0 0-28.029-6.862l-111.997 48C3.873 366.516-1.994 378.08.618 389.397l23.997 104C27.109 504.204 36.748 512 48 512c256.087 0 464-207.532 464-464 0-11.176-7.714-20.873-18.603-23.385z"/></symbol><symbol id="pin" viewBox="0 0 512 512"><path d="M256 0C161.896 0 85.333 76.563 85.333 170.667c0 28.25 7.063 56.26 20.49 81.104L246.667 506.5c1.875 3.396 5.448 5.5 9.333 5.5s7.458-2.104 9.333-5.5l140.896-254.813c13.375-24.76 20.438-52.771 20.438-81.021C426.667 76.563 350.104 0 256 0zm0 256c-47.052 0-85.333-38.281-85.333-85.333S208.948 85.334 256 85.334s85.333 38.281 85.333 85.333S303.052 256 256 256z"/></symbol><symbol id="search" viewBox="0 0 56.966 56.966"><path d="M55.146 51.887L41.588 37.786A22.926 22.926 0 0 0 46.984 23c0-12.682-10.318-23-23-23s-23 10.318-23 23 10.318 23 23 23c4.761 0 9.298-1.436 13.177-4.162l13.661 14.208c.571.593 1.339.92 2.162.92.779 0 1.518-.297 2.079-.837a3.004 3.004 0 0 0 .083-4.242zM23.984 6c9.374 0 17 7.626 17 17s-7.626 17-17 17-17-7.626-17-17 7.626-17 17-17z"/></symbol><symbol id="shopping-cart" viewBox="0 0 100 100"><path d="M153 408c-28.05 0-51 22.95-51 51s22.95 51 51 51 51-22.95 51-51-22.95-51-51-51zM0 0v51h51l91.8 193.8-35.7 61.2c-2.55 7.65-5.1 17.85-5.1 25.5 0 28.05 22.95 51 51 51h306v-51H163.2c-2.55 0-5.1-2.55-5.1-5.1v-2.551l22.95-43.35h188.7c20.4 0 35.7-10.2 43.35-25.5L504.9 89.25c5.1-5.1 5.1-7.65 5.1-12.75 0-15.3-10.2-25.5-25.5-25.5H107.1L84.15 0H0zm408 408c-28.05 0-51 22.95-51 51s22.95 51 51 51 51-22.95 51-51-22.95-51-51-51z"/></symbol><symbol id="smartphone-call" viewBox="0 0 100 100"><path d="M25.302 0H9.698a2.37 2.37 0 0 0-2.364 2.364v30.271A2.371 2.371 0 0 0 9.698 35h15.604a2.37 2.37 0 0 0 2.364-2.364V2.364A2.37 2.37 0 0 0 25.302 0zM15.004 1.704h4.992a.286.286 0 0 1 0 .573h-4.992a.286.286 0 1 1 0-.573zM17.5 33.818a1.182 1.182 0 1 1 0-2.364 1.182 1.182 0 0 1 0 2.364zm8.521-3.193H8.979V3.749h17.042v26.876z"/></symbol><symbol id="trash-alt" viewBox="0 0 448 512"><path d="M0 84V56c0-13.3 10.7-24 24-24h112l9.4-18.7c4-8.2 12.3-13.3 21.4-13.3h114.3c9.1 0 17.4 5.1 21.5 13.3L312 32h112c13.3 0 24 10.7 24 24v28c0 6.6-5.4 12-12 12H12C5.4 96 0 90.6 0 84zm416 56v324c0 26.5-21.5 48-48 48H80c-26.5 0-48-21.5-48-48V140c0-6.6 5.4-12 12-12h360c6.6 0 12 5.4 12 12zm-272 68c0-8.8-7.2-16-16-16s-16 7.2-16 16v224c0 8.8 7.2 16 16 16s16-7.2 16-16V208zm96 0c0-8.8-7.2-16-16-16s-16 7.2-16 16v224c0 8.8 7.2 16 16 16s16-7.2 16-16V208zm96 0c0-8.8-7.2-16-16-16s-16 7.2-16 16v224c0 8.8 7.2 16 16 16s16-7.2 16-16V208z"/></symbol><symbol id="user" viewBox="0 0 512 512"><path d="M256 0c88.366 0 160 71.634 160 160s-71.634 160-160 160S96 248.366 96 160 167.634 0 256 0zm183.283 333.821l-71.313-17.828c-74.923 53.89-165.738 41.864-223.94 0l-71.313 17.828C29.981 344.505 0 382.903 0 426.955V464c0 26.51 21.49 48 48 48h416c26.51 0 48-21.49 48-48v-37.045c0-44.052-29.981-82.45-72.717-93.134z"/></symbol><symbol id="arrow" viewBox="0 0 100 100"><path d="M345.441 248.292L151.154 442.573c-12.359 12.365-32.397 12.365-44.75 0-12.354-12.354-12.354-32.391 0-44.744L278.318 225.92 106.409 54.017c-12.354-12.359-12.354-32.394 0-44.748 12.354-12.359 32.391-12.359 44.75 0l194.287 194.284c6.177 6.18 9.262 14.271 9.262 22.366 0 8.099-3.091 16.196-9.267 22.373z"/></symbol></svg>