<svg xmlns="http://www.w3.org/2000/svg"><symbol id="adjust" viewBox="0 0 512 512"><path d="M8 256c0 136.966 111.033 248 248 248s248-111.034 248-248S392.966 8 256 8 8 119.033 8 256zm248 184V72c101.705 0 184 82.311 184 184 0 101.705-82.311 184-184 184z"/></symbol><symbol id="air-conditioner" viewBox="0 0 503.607 503.607"><path d="M478.426 75.541H25.18C10.911 75.541 0 86.452 0 100.721V268.59c0 14.269 10.911 25.18 25.18 25.18h453.246c14.269 0 25.18-10.911 25.18-25.18V100.721c.001-14.269-10.911-25.18-25.18-25.18zm8.394 193.049c0 5.036-3.357 8.393-8.393 8.393H25.18c-5.036 0-8.393-3.357-8.393-8.393V100.721c0-5.036 4.197-8.393 8.393-8.393h453.246c5.036 0 8.393 3.357 8.393 8.393V268.59z"/><path d="M218.229 151.082h67.148c5.036 0 8.393-3.357 8.393-8.393s-3.357-8.393-8.393-8.393h-67.148c-5.036 0-8.393 3.357-8.393 8.393s3.357 8.393 8.393 8.393zm243.41 92.328H41.967c-5.036 0-8.393 3.357-8.393 8.393s3.357 8.393 8.393 8.393h419.672c5.036 0 8.393-3.357 8.393-8.393s-3.357-8.393-8.393-8.393zm0-33.574H41.967c-5.036 0-8.393 3.357-8.393 8.393s3.357 8.393 8.393 8.393h419.672c5.036 0 8.393-3.357 8.393-8.393s-3.357-8.393-8.393-8.393zM256 353.364c-8.393-4.197-12.59-9.233-12.59-13.43s5.036-9.233 11.751-14.269c4.197-1.679 5.036-6.715 3.357-10.911-1.679-4.197-6.715-5.875-10.911-3.357-13.43 7.554-20.984 17.626-20.984 28.538 0 10.911 7.554 20.984 20.984 29.377 8.393 4.197 12.59 9.233 12.59 13.43s-5.036 9.233-12.59 13.429c-4.197 1.679-5.875 6.715-3.357 10.911 1.679 2.518 4.197 4.197 7.554 4.197 1.679 0 2.518 0 4.197-.839 13.43-7.554 20.984-17.626 20.984-28.538S269.43 360.079 256 353.364zm-92.328 16.787c-8.393-4.197-12.59-9.233-12.59-13.43s5.036-9.233 11.751-14.269c4.197-1.679 5.875-6.715 3.357-10.911-1.679-4.197-6.715-5.875-10.911-3.357-13.43 7.554-20.984 17.626-20.984 28.538 0 10.911 7.554 20.984 20.984 29.377 8.393 4.197 12.59 9.233 12.59 13.43s-5.036 9.233-12.59 13.43c-4.197 1.679-5.875 6.715-3.357 10.911 1.679 2.518 4.197 4.197 7.554 4.197 1.679 0 2.518 0 4.197-.839 13.43-7.554 20.984-17.626 20.984-28.538s-7.555-21.824-20.985-28.539zm184.656 0c-8.393-4.197-12.59-9.233-12.59-13.43s5.036-9.233 11.751-14.269c4.197-1.679 5.036-6.715 3.357-10.911-1.679-4.197-6.715-5.875-10.911-3.357-13.43 7.554-20.984 17.626-20.984 28.538 0 10.911 7.554 20.984 20.984 29.377 8.393 4.197 12.59 9.233 12.59 13.43s-5.036 9.233-12.59 13.43c-4.197 1.679-5.875 6.715-3.357 10.911 1.679 2.518 4.197 4.197 7.554 4.197 1.679 0 2.518 0 4.197-.839 13.43-7.554 20.984-17.626 20.984-28.538s-7.556-21.824-20.985-28.539z"/></symbol><symbol id="anchor" viewBox="0 0 576 512"><path d="M12.971 352h32.394C67.172 454.735 181.944 512 288 512c106.229 0 220.853-57.38 242.635-160h32.394c10.691 0 16.045-12.926 8.485-20.485l-67.029-67.029c-4.686-4.686-12.284-4.686-16.971 0l-67.029 67.029c-7.56 7.56-2.206 20.485 8.485 20.485h35.146c-20.29 54.317-84.963 86.588-144.117 94.015V256h52c6.627 0 12-5.373 12-12v-40c0-6.627-5.373-12-12-12h-52v-5.47c37.281-13.178 63.995-48.725 64-90.518C384.005 43.772 341.605.738 289.37.01 235.723-.739 192 42.525 192 96c0 41.798 26.716 77.35 64 90.53V192h-52c-6.627 0-12 5.373-12 12v40c0 6.627 5.373 12 12 12h52v190.015c-58.936-7.399-123.82-39.679-144.117-94.015h35.146c10.691 0 16.045-12.926 8.485-20.485l-67.029-67.029c-4.686-4.686-12.284-4.686-16.971 0L4.485 331.515C-3.074 339.074 2.28 352 12.971 352zM288 64c17.645 0 32 14.355 32 32s-14.355 32-32 32-32-14.355-32-32 14.355-32 32-32z"/></symbol><symbol id="angle-up" viewBox="0 0 320 512"><path d="M177 159.7l136 136c9.4 9.4 9.4 24.6 0 33.9l-22.6 22.6c-9.4 9.4-24.6 9.4-33.9 0L160 255.9l-96.4 96.4c-9.4 9.4-24.6 9.4-33.9 0L7 329.7c-9.4-9.4-9.4-24.6 0-33.9l136-136c9.4-9.5 24.6-9.5 34-.1z"/></symbol><symbol id="arrow-down" viewBox="0 0 31.49 31.49"><path d="M21.205 5.007a1.112 1.112 0 0 0-1.587 0 1.12 1.12 0 0 0 0 1.571l8.047 8.047H1.111A1.106 1.106 0 0 0 0 15.737c0 .619.492 1.127 1.111 1.127h26.554l-8.047 8.032c-.429.444-.429 1.159 0 1.587a1.112 1.112 0 0 0 1.587 0l9.952-9.952a1.093 1.093 0 0 0 0-1.571l-9.952-9.953z" fill="#1e201d"/></symbol><symbol id="arrow-right" viewBox="0 0 100 100"><path d="M345.441 248.292L151.154 442.573c-12.359 12.365-32.397 12.365-44.75 0-12.354-12.354-12.354-32.391 0-44.744L278.318 225.92 106.409 54.017c-12.354-12.359-12.354-32.394 0-44.748 12.354-12.359 32.391-12.359 44.75 0l194.287 194.284c6.177 6.18 9.262 14.271 9.262 22.366 0 8.099-3.091 16.196-9.267 22.373z"/></symbol><symbol id="arrow" viewBox="0 0 100 100"><path d="M345.441 248.292L151.154 442.573c-12.359 12.365-32.397 12.365-44.75 0-12.354-12.354-12.354-32.391 0-44.744L278.318 225.92 106.409 54.017c-12.354-12.359-12.354-32.394 0-44.748 12.354-12.359 32.391-12.359 44.75 0l194.287 194.284c6.177 6.18 9.262 14.271 9.262 22.366 0 8.099-3.091 16.196-9.267 22.373z"/></symbol><symbol id="bars" viewBox="0 0 448 512"><path d="M16 132h416c8.837 0 16-7.163 16-16V76c0-8.837-7.163-16-16-16H16C7.163 60 0 67.163 0 76v40c0 8.837 7.163 16 16 16zm0 160h416c8.837 0 16-7.163 16-16v-40c0-8.837-7.163-16-16-16H16c-8.837 0-16 7.163-16 16v40c0 8.837 7.163 16 16 16zm0 160h416c8.837 0 16-7.163 16-16v-40c0-8.837-7.163-16-16-16H16c-8.837 0-16 7.163-16 16v40c0 8.837 7.163 16 16 16z"/></symbol><symbol id="box" viewBox="0 0 512 512"><path d="M470.573 369.837c-1.951-5.285-7.815-7.988-13.1-6.038l-106.072 39.139c-5.285 1.95-7.988 7.815-6.038 13.1a10.204 10.204 0 0 0 9.57 6.671 10.2 10.2 0 0 0 3.53-.633l106.072-39.139c5.285-1.95 7.988-7.815 6.038-13.1zm-135.236 49.901c-1.949-5.286-7.815-7.989-13.1-6.039l-4.492 1.657c-5.284 1.95-7.988 7.815-6.038 13.099a10.204 10.204 0 0 0 9.57 6.672 10.2 10.2 0 0 0 3.53-.633l4.492-1.657c5.284-1.95 7.988-7.814 6.038-13.099zm135.236-91.462c-1.951-5.285-7.815-7.986-13.1-6.038l-83.825 30.93c-5.285 1.95-7.988 7.815-6.038 13.1a10.204 10.204 0 0 0 9.57 6.671 10.2 10.2 0 0 0 3.53-.633l83.825-30.93c5.285-1.95 7.988-7.815 6.038-13.1zm0-41.129c-1.951-5.285-7.815-7.986-13.1-6.038l-83.825 30.93c-5.285 1.95-7.988 7.815-6.038 13.1a10.204 10.204 0 0 0 9.57 6.671 10.2 10.2 0 0 0 3.53-.633l83.825-30.93c5.285-1.95 7.988-7.815 6.038-13.1z"/><path d="M505.332 100.528L259.531 9.832a10.207 10.207 0 0 0-7.061 0L6.669 100.528l-.002.008c-.805.298-1.579.692-2.299 1.193A10.201 10.201 0 0 0 0 110.097v291.806a10.2 10.2 0 0 0 6.668 9.569l245.801 90.696c1.146.423 2.341.63 3.53.63 1.201 0 2.396-.218 3.528-.636l.004.006 245.801-90.696a10.2 10.2 0 0 0 6.668-9.569V110.097a10.2 10.2 0 0 0-6.668-9.569zM245.801 477.965l-225.403-83.17V124.732l45.896 16.936v123.578a10.2 10.2 0 0 0 6.668 9.569l110.151 40.645a10.2 10.2 0 0 0 13.73-9.569V189.838l48.956 18.064v270.063zm-69.355-295.654v108.943l-89.753-33.118V149.193l89.753 33.118zm-70.489-47.834l80.688-29.773 80.688 29.773-80.688 29.773-80.688-29.773zM256 189.922l-40.001-14.76 84.329-31.117a10.2 10.2 0 0 0 0-19.138L190.176 84.263a10.21 10.21 0 0 0-7.062 0L76.383 123.647l-36.72-13.55L256 30.273l216.337 79.825L256 189.922zm235.602 204.873L266.2 477.964V207.902l225.402-83.17v270.063z"/></symbol><symbol id="chevron-left" viewBox="0 0 320 512"><path d="M34.52 239.03L228.87 44.69c9.37-9.37 24.57-9.37 33.94 0l22.67 22.67c9.36 9.36 9.37 24.52.04 33.9L131.49 256l154.02 154.75c9.34 9.38 9.32 24.54-.04 33.9l-22.67 22.67c-9.37 9.37-24.57 9.37-33.94 0L34.52 272.97c-9.37-9.37-9.37-24.57 0-33.94z"/></symbol><symbol id="chevron-right" viewBox="0 0 320 512"><path d="M285.476 272.971L91.132 467.314c-9.373 9.373-24.569 9.373-33.941 0l-22.667-22.667c-9.357-9.357-9.375-24.522-.04-33.901L188.505 256 34.484 101.255c-9.335-9.379-9.317-24.544.04-33.901l22.667-22.667c9.373-9.373 24.569-9.373 33.941 0L285.475 239.03c9.373 9.372 9.373 24.568.001 33.941z"/></symbol><symbol id="clock" viewBox="0 0 372.96 372.96"><path d="M186.48 0C83.49 0 0 83.49 0 186.48s83.49 186.48 186.48 186.48 186.48-83.49 186.48-186.48C372.828 83.545 289.415.132 186.48 0zm8 356.56v-32.8a8 8 0 0 0-16 0v32.8C90.759 352.372 20.588 282.201 16.4 194.48h32.8a8 8 0 0 0 0-16H16.4C20.588 90.759 90.759 20.588 178.48 16.4v32.8a8 8 0 0 0 16 0V16.4c87.721 4.188 157.892 74.359 162.08 162.08h-32.8a8 8 0 0 0 0 16h32.88c-4.191 87.75-74.408 157.932-162.16 162.08z"/><path d="M270.88 260.88l-76.4-77.68v-80.72a8 8 0 0 0-16 0v84a8 8 0 0 0 2.32 5.6l78.64 80a8.005 8.005 0 1 0 11.44-11.2z"/></symbol><symbol id="cog" viewBox="0 0 512 512"><path d="M444.788 291.1l42.616 24.599c4.867 2.809 7.126 8.618 5.459 13.985-11.07 35.642-29.97 67.842-54.689 94.586a12.016 12.016 0 0 1-14.832 2.254l-42.584-24.595a191.577 191.577 0 0 1-60.759 35.13v49.182a12.01 12.01 0 0 1-9.377 11.718c-34.956 7.85-72.499 8.256-109.219.007-5.49-1.233-9.403-6.096-9.403-11.723v-49.184a191.555 191.555 0 0 1-60.759-35.13l-42.584 24.595a12.016 12.016 0 0 1-14.832-2.254c-24.718-26.744-43.619-58.944-54.689-94.586-1.667-5.366.592-11.175 5.459-13.985L67.212 291.1a193.48 193.48 0 0 1 0-70.199l-42.616-24.599c-4.867-2.809-7.126-8.618-5.459-13.985 11.07-35.642 29.97-67.842 54.689-94.586a12.016 12.016 0 0 1 14.832-2.254l42.584 24.595a191.577 191.577 0 0 1 60.759-35.13V25.759a12.01 12.01 0 0 1 9.377-11.718c34.956-7.85 72.499-8.256 109.219-.007 5.49 1.233 9.403 6.096 9.403 11.723v49.184a191.555 191.555 0 0 1 60.759 35.13l42.584-24.595a12.016 12.016 0 0 1 14.832 2.254c24.718 26.744 43.619 58.944 54.689 94.586 1.667 5.366-.592 11.175-5.459 13.985L444.788 220.9a193.485 193.485 0 0 1 0 70.2zM336 256c0-44.112-35.888-80-80-80s-80 35.888-80 80 35.888 80 80 80 80-35.888 80-80z"/></symbol><symbol id="coin-stack" viewBox="0 0 100 100"><path d="M116.682 229.329c11.286 0 22.195-.729 32.518-2.086V114.094c-10.322-1.356-21.232-2.085-32.518-2.085C52.241 112.009.001 135.702.001 164.93v11.477c0 29.227 52.24 52.922 116.681 52.922zm0 59.082c11.286 0 22.195-.729 32.518-2.084v-33.166c-10.325 1.356-21.229 2.095-32.518 2.095-56.25 0-103.199-18.054-114.227-42.082-1.606 3.5-2.454 7.124-2.454 10.839v11.477c0 29.228 52.24 52.921 116.681 52.921zm32.517 26.412v-2.578c-10.325 1.356-21.229 2.095-32.518 2.095-56.25 0-103.199-18.054-114.227-42.082C.848 275.757 0 279.381 0 283.096v11.477c0 29.229 52.24 52.922 116.681 52.922 12.887 0 25.282-.95 36.873-2.7-2.873-5.877-4.355-12.075-4.355-18.496v-11.476zM284.92 22.379c-64.441 0-116.681 23.693-116.681 52.921v11.477c0 29.228 52.24 52.921 116.681 52.921 64.44 0 116.681-23.693 116.681-52.921V75.3c0-29.228-52.241-52.921-116.681-52.921z"/><path d="M284.92 165.626c-56.25 0-103.199-18.053-114.227-42.082-1.606 3.499-2.454 7.123-2.454 10.839v11.477c0 29.228 52.24 52.921 116.681 52.921 64.44 0 116.681-23.693 116.681-52.921v-11.477c0-3.716-.848-7.34-2.454-10.839-11.028 24.029-57.977 42.082-114.227 42.082z"/><path d="M284.92 224.71c-56.25 0-103.199-18.054-114.227-42.082-1.606 3.499-2.454 7.123-2.454 10.839v11.477c0 29.229 52.24 52.922 116.681 52.922 64.44 0 116.681-23.693 116.681-52.922v-11.477c0-3.716-.848-7.34-2.454-10.839-11.028 24.029-57.977 42.082-114.227 42.082z"/><path d="M284.92 286.983c-56.25 0-103.199-18.054-114.227-42.082-1.606 3.5-2.454 7.123-2.454 10.838v11.478c0 29.228 52.24 52.921 116.681 52.921 64.44 0 116.681-23.693 116.681-52.921v-11.478c0-3.715-.848-7.34-2.454-10.838-11.028 24.027-57.977 42.082-114.227 42.082z"/><path d="M284.92 346.066c-56.25 0-103.199-18.053-114.227-42.081-1.606 3.5-2.454 7.125-2.454 10.838V326.3c0 29.228 52.24 52.921 116.681 52.921 64.44 0 116.681-23.693 116.681-52.921v-11.478c0-3.715-.848-7.34-2.454-10.838-11.028 24.028-57.977 42.082-114.227 42.082z"/></symbol><symbol id="contact" viewBox="0 0 44 44"><path d="M43 6H1a1 1 0 0 0-1 1v30a1 1 0 0 0 1 1h42a1 1 0 0 0 1-1V7a1 1 0 0 0-1-1zm-1 27.581L29.612 21.194l-1.414 1.414L41.59 36H2.41l13.392-13.392-1.414-1.414L2 33.581V8h40v25.581z"/><path d="M39.979 8L22 25.979 4.021 8H2v.807L21.293 28.1a.999.999 0 0 0 1.414 0L42 8.807V8h-2.021z"/></symbol><symbol id="credit-card" viewBox="0 0 512 512"><path d="M498.409 175.706L336.283 13.582C327.531 4.831 315.86.011 303.418.011c-12.441 0-24.113 4.818-32.865 13.569L13.571 270.563C4.82 279.315 0 290.985 0 303.427c0 12.442 4.82 24.114 13.571 32.864l19.992 19.992.005.005.006.006 134.36 134.36H149.33c-5.89 0-10.666 4.775-10.666 10.666 0 5.89 4.776 10.666 10.666 10.666h59.189l.041.001.041-.001 154.053.002c5.89 0 10.666-4.776 10.666-10.666 0-5.891-4.776-10.666-10.666-10.666l-113.464-.002 249.22-249.22c18.12-18.122 18.12-47.608-.001-65.728zm-15.084 50.644L226.341 483.334c-4.713 4.712-11.013 7.31-17.742 7.32h-.081c-6.727-.011-13.025-2.608-17.736-7.32L56.195 348.746 302.99 101.949c4.165-4.165 4.165-10.919 0-15.084-4.166-4.165-10.918-4.165-15.085.001L41.11 333.663l-12.456-12.456c-4.721-4.721-7.321-11.035-7.321-17.779s2.6-13.059 7.322-17.781L285.637 28.665c4.722-4.721 11.037-7.321 17.781-7.321 6.744 0 13.059 2.6 17.781 7.322l57.703 57.702-246.798 246.8c-4.165 4.164-4.165 10.918 0 15.085a10.636 10.636 0 0 0 7.542 3.123c2.729 0 5.459-1.042 7.542-3.124l246.798-246.799 89.339 89.336c9.803 9.804 9.802 25.757 0 35.561z"/><path d="M262.801 308.064c-4.165-4.165-10.917-4.164-15.085 0l-83.934 83.933c-4.165 4.165-4.165 10.918 0 15.085a10.633 10.633 0 0 0 7.542 3.124c2.729 0 5.459-1.042 7.542-3.124l83.934-83.933c4.166-4.167 4.166-10.92.001-15.085zm-34.426 79.677l-34.425 34.425c-4.165 4.165-4.165 10.919 0 15.085a10.637 10.637 0 0 0 7.542 3.124c2.731 0 5.459-1.042 7.542-3.124l34.425-34.425c4.165-4.165 4.165-10.919 0-15.085s-10.916-4.166-15.084 0zm31.679-31.676l-4.525 4.524c-4.166 4.165-4.166 10.918-.001 15.085a10.632 10.632 0 0 0 7.542 3.125 10.63 10.63 0 0 0 7.541-3.125l4.525-4.524c4.166-4.165 4.166-10.918.001-15.084-4.163-4.165-10.918-4.166-15.083-.001zm147.019-192.272a10.666 10.666 0 0 0-15.084 0l-45.255 45.254a10.668 10.668 0 0 0 0 15.084l30.17 30.167a10.633 10.633 0 0 0 7.542 3.124c2.731 0 5.459-1.042 7.542-3.124l45.253-45.252c4.165-4.165 4.165-10.919 0-15.084l-30.168-30.169zm-22.628 67.88l-15.085-15.084 30.17-30.169 15.084 15.085-30.169 30.168zM320.339 80.186c2.731 0 5.461-1.042 7.543-3.126l4.525-4.527c4.164-4.166 4.163-10.92-.003-15.084-4.165-4.164-10.92-4.163-15.084.003l-4.525 4.527c-4.164 4.166-4.163 10.92.003 15.084a10.628 10.628 0 0 0 7.541 3.123zM107.215 358.057l-4.525 4.525c-4.165 4.164-4.165 10.918 0 15.085 2.083 2.082 4.813 3.123 7.542 3.123s5.459-1.041 7.542-3.123l4.525-4.525c4.165-4.166 4.165-10.92 0-15.085-4.166-4.166-10.918-4.166-15.084 0z"/></symbol><symbol id="delivery" viewBox="0 0 100 100"><path d="M226.764 375.35c-28.249 0-51.078 22.91-51.078 51.16 0 28.166 22.829 51.078 51.078 51.078s51.078-22.912 51.078-51.078c-.001-28.25-22.829-51.16-51.078-51.16zm0 76.699c-14.125 0-25.54-11.498-25.54-25.541 0-14.123 11.415-25.539 25.54-25.539 14.124 0 25.539 11.416 25.539 25.539-.001 14.043-11.415 25.541-25.539 25.541zM612 337.561v54.541c0 13.605-11.029 24.635-24.636 24.635h-26.36c-4.763-32.684-32.929-57.812-66.927-57.812-33.914 0-62.082 25.129-66.845 57.812H293.625c-4.763-32.684-32.93-57.812-66.845-57.812s-62.082 25.129-66.844 57.812h-33.012c-13.606 0-24.635-11.029-24.635-24.635v-54.541H612zM494.143 375.35c-28.249 0-51.16 22.91-51.16 51.16 0 28.166 22.912 51.078 51.16 51.078 28.166 0 51.077-22.912 51.077-51.078 0-28.25-22.911-51.16-51.077-51.16zm0 76.699c-14.125 0-25.539-11.498-25.539-25.541 0-14.123 11.414-25.539 25.539-25.539 14.042 0 25.539 11.416 25.539 25.539 0 14.043-11.497 25.541-25.539 25.541zm108.15-169.412l-96.817-95.751c-6.159-6.077-14.453-9.526-23.076-9.526h-48.86v-18.313c0-13.631-11.004-24.635-24.635-24.635H126.907c-13.55 0-24.635 11.005-24.635 24.635v3.86L2.3 174.429l177.146 23.068L0 215.323l178.814 25.423L0 256.25l102.278 19.29-.007 48.403h509.712v-17.985c0-8.787-3.531-17.162-9.69-23.321zm-42.209 3.202h-93.697a3.855 3.855 0 0 1-3.86-3.859v-72.347a3.856 3.856 0 0 1 3.86-3.86h17.82c.985 0 1.971.411 2.71 1.068l75.796 72.347c2.544 2.381.819 6.651-2.629 6.651z"/></symbol><symbol id="home" viewBox="0 0 27.02 27.02"><path d="M3.674 24.876s-.024.604.566.604l6.811-.008.01-5.581s-.096-.92.797-.92h2.826c1.056 0 .991.92.991.92l-.012 5.563h6.667c.749 0 .715-.752.715-.752V14.413l-9.396-8.358-9.975 8.358v10.463z"/><path d="M0 13.635s.847 1.561 2.694 0l11.038-9.338 10.349 9.28c2.138 1.542 2.939 0 2.939 0L13.732 1.54 0 13.635z"/></symbol><symbol id="information" viewBox="0 0 512 512"><circle cx="256" cy="378.5" r="25"/><path d="M256 0C114.516 0 0 114.497 0 256c0 141.484 114.497 256 256 256 141.484 0 256-114.497 256-256C512 114.516 397.503 0 256 0zm0 472c-119.377 0-216-96.607-216-216 0-119.377 96.607-216 216-216 119.377 0 216 96.607 216 216 0 119.377-96.607 216-216 216z"/><path d="M256 128.5c-44.112 0-80 35.888-80 80 0 11.046 8.954 20 20 20s20-8.954 20-20c0-22.056 17.944-40 40-40s40 17.944 40 40-17.944 40-40 40c-11.046 0-20 8.954-20 20v50c0 11.046 8.954 20 20 20s20-8.954 20-20v-32.531c34.466-8.903 60-40.26 60-77.469 0-44.112-35.888-80-80-80z"/></symbol><symbol id="like" viewBox="0 0 512.001 512.001"><path d="M472.367 71.829c-25.598-25.599-59.635-39.697-95.837-39.697s-70.237 14.098-95.837 39.697A135.49 135.49 0 0 0 256 105.692a135.54 135.54 0 0 0-24.693-33.863c-25.598-25.599-59.635-39.697-95.837-39.697-36.202 0-70.238 14.098-95.837 39.697-52.845 52.845-52.845 138.828 0 191.674L256 479.869l216.367-216.367c52.845-52.845 52.845-138.829 0-191.673z"/></symbol><symbol id="line-chart" viewBox="0 0 486.742 486.742"><path d="M33 362.371v78.9c0 4.8 3.9 8.8 8.8 8.8h61c4.8 0 8.8-3.9 8.8-8.8v-138.8l-44.3 44.3c-9.4 9.3-21.4 14.7-34.3 15.6zm109-60.9v139.8c0 4.8 3.9 8.8 8.8 8.8h61c4.8 0 8.8-3.9 8.8-8.8v-82.3c-13.9-.3-26.9-5.8-36.7-15.6l-41.9-41.9zm109 48.8v91c0 4.8 3.9 8.8 8.8 8.8h61c4.8 0 8.8-3.9 8.8-8.8v-167.9l-69.9 69.9c-2.7 2.7-5.6 5-8.7 7zm181.7-180.1l-72.7 72.7v198.4c0 4.8 3.9 8.8 8.8 8.8h61c4.8 0 8.8-3.9 8.8-8.8v-265.6c-2-1.7-3.5-3.2-4.6-4.2l-1.3-1.3z"/><path d="M482.6 41.371c-2.9-3.1-7.3-4.7-12.9-4.7h-1.6c-28.4 1.3-56.7 2.7-85.1 4-3.8.2-9 .4-13.1 4.5-1.3 1.3-2.3 2.8-3.1 4.6-4.2 9.1 1.7 15 4.5 17.8l7.1 7.2c4.9 5 9.9 10 14.9 14.9l-171.6 171.7-77.1-77.1c-4.6-4.6-10.8-7.2-17.4-7.2-6.6 0-12.7 2.6-17.3 7.2L7.2 286.871c-9.6 9.6-9.6 25.1 0 34.7l4.6 4.6c4.6 4.6 10.8 7.2 17.4 7.2s12.7-2.6 17.3-7.2l80.7-80.7 77.1 77.1c4.6 4.6 10.8 7.2 17.4 7.2 6.6 0 12.7-2.6 17.4-7.2l193.6-193.6 21.9 21.8c2.6 2.6 6.2 6.2 11.7 6.2 2.3 0 4.6-.6 7-1.9 1.6-.9 3-1.9 4.2-3.1 4.3-4.3 5.1-9.8 5.3-14.1.8-18.4 1.7-36.8 2.6-55.3l1.3-27.7c.3-5.8-1-10.3-4.1-13.5z"/></symbol><symbol id="man-user" viewBox="0 0 350 350"><path d="M175 171.173c38.914 0 70.463-38.318 70.463-85.586C245.463 38.318 235.105 0 175 0s-70.465 38.318-70.465 85.587c0 47.268 31.549 85.586 70.465 85.586zM41.909 301.853c-.012-2.882-.024-.812 0 0zm266.176 2.251c.038-.789.013-5.474 0 0z"/><path d="M307.935 298.397c-1.305-82.342-12.059-105.805-94.352-120.657 0 0-11.584 14.761-38.584 14.761s-38.586-14.761-38.586-14.761C55.018 192.43 43.61 215.545 42.11 295.722c-.123 6.547-.18 6.891-.202 6.131.005 1.424.011 4.058.011 8.651 0 0 19.592 39.496 133.08 39.496 113.486 0 133.08-39.496 133.08-39.496 0-2.951.002-5.003.005-6.399-.022.47-.066-.441-.149-5.708z"/></symbol><symbol id="operator" viewBox="0 0 512 512"><path d="M486.4 424.96c-50.93-27.008-89.996-42.152-124.772-47.958l3.599-4.948c1.707-1.707 2.56-4.267 1.707-6.827l-7.997-31.987a179.809 179.809 0 0 0 8.193-12.688c31.8-10.823 47.881-29.118 50.583-56.054 13.968-.728 26.02-13.195 26.02-27.271v-64c0-14.012-11.147-26.429-25.75-27.26C416.104 96.671 394.368 0 256 0 117.629 0 95.895 96.675 94.016 145.97c-13.853.818-25.749 12.449-25.749 27.256v64c0 14.507 12.8 27.307 28.16 27.307h12.8c4.704 0 9.225-1.352 13.163-3.666 4.839 25.685 15.518 50.948 30.674 72.372l-7.997 31.987c0 1.707 0 4.267 1.707 6.827l3.599 4.948c-34.776 5.807-73.842 20.95-124.772 47.958C9.387 432.64 0 448.853 0 466.773v36.693C0 508.587 3.413 512 8.533 512h494.933c5.12 0 8.533-3.413 8.533-8.533v-36.693c.001-17.067-10.239-33.281-25.599-41.814zm-230.353-19.519l20.433 46.826h-41.245l20.812-46.826zm-27.012 63.892h53.897l4.995 25.6h-64.013l5.121-25.6zM345.6 349.867l3.413 15.36-8.717 11.969a7.615 7.615 0 0 0-1.523 1.684l-35.495 49.147-11.262 15.464-23.005-51.761c28.058-3.422 53.044-17.722 73.077-38.212a155.996 155.996 0 0 0 3.512-3.651zm33.321-53.083c4.813-11.711 8.441-23.884 10.735-36.154a26.813 26.813 0 0 0 10.936 3.729c-1.479 12.062-6.838 23.45-21.671 32.425zm46.892-124.411v64c0 5.12-4.267 10.24-10.24 10.24h-12.8c-5.12 0-10.24-4.267-10.24-10.24v-64c0-5.12 4.267-10.24 10.24-10.24h12.8c5.12 0 10.24 4.267 10.24 10.24zM256 17.067c52.597 0 141.118 17.17 144.924 128.992a27.134 27.134 0 0 0-10.099 3.124C380.441 84.202 323.787 34.133 256 34.133c-67.778 0-124.426 50.055-134.821 115.022a26.794 26.794 0 0 0-10.104-3.099C114.883 34.237 203.404 17.067 256 17.067zM118.613 236.373c0 5.12-4.267 10.24-10.24 10.24h-12.8c-5.12 0-10.24-4.267-10.24-10.24v-64c0-5.12 4.267-10.24 10.24-10.24h12.8c5.12 0 10.24 4.267 10.24 10.24v64zm17.92-65.706C136.533 104.96 190.293 51.2 256 51.2s119.467 53.76 119.467 119.467V230.4c0 28.232-7.35 54.079-19.266 75.887-20.368 5.908-49.669 9.446-91.667 9.446-5.12 0-8.533 3.413-8.533 8.533s3.413 8.533 8.533 8.533c30.745 0 56.458-1.888 77.515-5.835l-1.569 1.569c-4.293 5.724-8.824 10.943-13.558 15.649-20.093 18.719-44.058 30.058-67.152 31.181-1.162-.499-2.465-.75-3.77-.75-1.312 0-2.494.257-3.554.761-14.136-.648-28.603-5.129-42.316-12.793-13.893-7.982-26.962-19.489-38.61-34.048l-2.56-2.56-.498-.166c-19.164-25.134-31.929-58.199-31.929-95.407v-59.733zM242.988 391.73l-23.005 51.761-11.262-15.464-35.495-49.147a14.853 14.853 0 0 0-.884-.806l-9.356-12.847 3.413-15.36a155.865 155.865 0 0 0 3.509 3.649c20.034 20.49 45.022 34.791 73.08 38.214zM17.067 466.773c0-11.093 5.973-21.333 16.213-26.453 54.393-28.896 93.548-43.399 128.428-47.731l50.922 70.018-6.465 32.326H17.067v-28.16zm477.866 28.16H305.835l-6.465-32.326 51.474-70.777c34.757 5.245 74.615 19.737 127.877 47.636 10.24 5.973 16.213 16.213 16.213 27.307v28.16z"/></symbol><symbol id="pedestrian-walking" viewBox="0 0 470.642 470.642"><path d="M223.821 76.022c10.333-.333 19-4.333 26-12s10.333-16.667 10-27c-.333-10.335-4.167-19.168-11.5-26.5-7.333-7.333-16.167-10.833-26.5-10.5s-19 4.333-26 12-10.5 16.667-10.5 27 3.833 19.167 11.5 26.5 16.667 10.833 27 10.5zm126.5 126.5l-55-30-45-72c-8.667-10.667-19.333-16-32-16-8.667 0-17 3.667-25 11l-68 69c-2 2.667-3.333 5.667-4 9l-9 77v2c0 4.666 1.667 8.666 5 12 3.333 3.332 7.333 5 12 5s8.5-1.668 11.5-5c3-3.334 4.833-7 5.5-11l7-66 24-24-22 184-39 87.001c-1.333 4-2 7.658-2 11.002 0 7.322 2.5 13.5 7.5 18.5s11.167 7.164 18.5 6.5c10 0 17.333-4.678 22-14l42-94.002c0-.67.333-1.835 1-3.5a59.614 59.614 0 0 1 2-4.5c.667-1.335 1-2.67 1-4l5-45.001 43 148.003c4.667 12 13 17.666 25 17 6.667 0 12.5-2.5 17.5-7.5s7.5-11.178 7.5-18.5c0-.678-.167-1.5-.5-2.5s-.5-1.836-.5-2.502l-60-205.001 7-67 17 27c1.333 2 3 3.667 5 5l59 33c4 1.333 6.667 2 8 2 4.667 0 8.667-1.833 12-5.5 3.333-3.668 5-7.834 5-12.5 0-6-2.667-10.667-8-14z" fill="#010002"/></symbol><symbol id="phone" viewBox="0 0 512 512"><path d="M493.397 24.615l-104-23.997c-11.314-2.611-22.879 3.252-27.456 13.931l-48 111.997a24 24 0 0 0 6.862 28.029l60.617 49.596c-35.973 76.675-98.938 140.508-177.249 177.248l-49.596-60.616a24 24 0 0 0-28.029-6.862l-111.997 48C3.873 366.516-1.994 378.08.618 389.397l23.997 104C27.109 504.204 36.748 512 48 512c256.087 0 464-207.532 464-464 0-11.176-7.714-20.873-18.603-23.385z"/></symbol><symbol id="pin" viewBox="0 0 512 512"><path d="M256 0C161.896 0 85.333 76.563 85.333 170.667c0 28.25 7.063 56.26 20.49 81.104L246.667 506.5c1.875 3.396 5.448 5.5 9.333 5.5s7.458-2.104 9.333-5.5l140.896-254.813c13.375-24.76 20.438-52.771 20.438-81.021C426.667 76.563 350.104 0 256 0zm0 256c-47.052 0-85.333-38.281-85.333-85.333S208.948 85.334 256 85.334s85.333 38.281 85.333 85.333S303.052 256 256 256z"/></symbol><symbol id="project" viewBox="0 0 480.001 480.001"><path d="M472 0H112a8 8 0 0 0-8 8v120h16V16h344v440a7.873 7.873 0 0 1-7.368 8c-.688 0-1.376-.056-2.064-.072-1.416-.04-2.832-.072-4.224-.216-.12 0-.232 0-.352-.048-26.128-2.856-46.767-23.475-49.648-49.6 0-.112-.04-.232-.056-.344A55.763 55.763 0 0 1 400 408v-16a8 8 0 0 0-8-8H120V240h-16v144H40a8 8 0 0 0-8 8v16c.044 39.746 32.254 71.956 72 72h352.8c12.982-.34 23.3-11.014 23.2-24V8a8 8 0 0 0-8-8zM104 464c-30.913-.035-55.965-25.087-56-56v-8h336v8c.011 2.638.163 5.274.456 7.896.072.696.208 1.368.304 2.056a69.319 69.319 0 0 0 1.008 5.76c.144.664.328 1.32.496 1.984a72.76 72.76 0 0 0 1.68 5.696c.184.536.376 1.064.576 1.6a70.234 70.234 0 0 0 2.456 5.832c.192.392.368.8.56 1.16a67.514 67.514 0 0 0 3.304 5.912c.16.256.304.52.464.8a71.828 71.828 0 0 0 4.216 5.92l.256.344a73.739 73.739 0 0 0 5.6 6.264 70.533 70.533 0 0 0 5.36 4.8L104 464z"/><path d="M264 224a8 8 0 0 0 5.656-2.344l32-32a8 8 0 0 0 0-11.312l-32-32A8 8 0 0 0 264 144H40c-22.091 0-40 17.909-40 40s17.909 40 40 40h224zm-2.064-62.752L284.688 184l-22.752 22.752L256.248 184l5.688-22.752zM64 160h181.76l-4 16H80v16h161.76l4 16H64v-48zm-48 24c0-13.255 10.745-24 24-24h8v48h-8c-13.255 0-24-10.745-24-24zm168 160h240a8 8 0 0 0 8-8V96a8 8 0 0 0-13.656-5.656l-240 240A8 8 0 0 0 184 344zm232-228.688V136h-16v16h16v16h-16v16h16v16h-16v16h16v16h-16v16h16v16h-16v16h16v16h-16v16h16v16h-16v-16h-16v16h-16v-16h-16v16h-16v-16h-16v16h-16v-16h-16v16h-16v-16h-16v16h-16v-16h-16v16h-20.688L416 115.312z"/><path d="M299.88 296H376a8 8 0 0 0 8-8v-76.12a8 8 0 0 0-13.656-5.656l-76.12 76.12A8 8 0 0 0 299.88 296zM368 231.2V280h-48.8l48.8-48.8zM208 48h160v16H208zm-24 32h208v16H184zm-48 168h48v16h-48zm0 32h32v16h-32z"/></symbol><symbol id="resume" viewBox="0 0 512 512"><path d="M414.007 148.75c5.522 0 10-4.477 10-10V30c0-16.542-13.458-30-30-30h-364c-16.542 0-30 13.458-30 30v452c0 16.542 13.458 30 30 30h364c16.542 0 30-13.458 30-30v-73.672c0-5.523-4.478-10-10-10s-10 4.477-10 10V482c0 5.514-4.486 10-10 10h-364c-5.514 0-10-4.486-10-10V30c0-5.514 4.486-10 10-10h364c5.514 0 10 4.486 10 10v108.75c0 5.523 4.478 10 10 10z"/><path d="M212.007 54c-50.729 0-92 41.271-92 92 0 26.317 11.11 50.085 28.882 66.869.333.356.687.693 1.074 1 16.371 14.979 38.158 24.13 62.043 24.13 23.885 0 45.672-9.152 62.043-24.13a9.993 9.993 0 0 0 1.074-1c17.774-16.784 28.884-40.552 28.884-66.869 0-50.729-41.271-92-92-92zm0 164c-16.329 0-31.399-5.472-43.491-14.668 8.789-15.585 25.19-25.332 43.491-25.332s34.702 9.747 43.491 25.332C243.405 212.528 228.336 218 212.007 218zm-16-76v-6.5c0-8.822 7.178-16 16-16s16 7.178 16 16v6.5c0 8.822-7.178 16-16 16s-16-7.178-16-16zm73.94 46.683a69.375 69.375 0 0 0-29.463-24.697c4.71-6.087 7.523-13.712 7.523-21.986v-6.5c0-19.851-16.149-36-36-36s-36 16.149-36 36v6.5c0 8.274 2.813 15.899 7.523 21.986a69.375 69.375 0 0 0-29.463 24.697c-8.829-11.953-14.06-26.716-14.06-42.683 0-39.701 32.299-72 72-72s72 32.299 72 72c0 15.967-5.231 30.73-14.06 42.683zM266.007 438h-54c-5.522 0-10 4.477-10 10s4.478 10 10 10h54c5.522 0 10-4.477 10-10s-4.478-10-10-10zm0-56h-142c-5.522 0-10 4.477-10 10s4.478 10 10 10h142c5.522 0 10-4.477 10-10s-4.478-10-10-10zm0-56h-142c-5.522 0-10 4.477-10 10s4.478 10 10 10h142c5.522 0 10-4.477 10-10s-4.478-10-10-10zM88.366 272.93a10.077 10.077 0 0 0-7.079-2.93c-2.631 0-5.211 1.07-7.07 2.93-1.86 1.86-2.93 4.44-2.93 7.07s1.069 5.21 2.93 7.07a10.092 10.092 0 0 0 7.07 2.93c2.64 0 5.21-1.07 7.079-2.93 1.86-1.86 2.931-4.44 2.931-7.07s-1.07-5.21-2.931-7.07zm0 56a10.095 10.095 0 0 0-7.079-2.93c-2.631 0-5.2 1.07-7.07 2.93-1.86 1.86-2.93 4.44-2.93 7.07s1.069 5.21 2.93 7.07a10.092 10.092 0 0 0 7.07 2.93c2.64 0 5.21-1.07 7.079-2.93 1.86-1.86 2.931-4.44 2.931-7.07s-1.07-5.21-2.931-7.07zm0 56a10.095 10.095 0 0 0-7.079-2.93c-2.631 0-5.2 1.07-7.07 2.93-1.86 1.86-2.93 4.44-2.93 7.07s1.069 5.21 2.93 7.07a10.072 10.072 0 0 0 7.07 2.93c2.64 0 5.22-1.07 7.079-2.93 1.86-1.86 2.931-4.44 2.931-7.07s-1.07-5.21-2.931-7.07zM266.007 270h-142c-5.522 0-10 4.477-10 10s4.478 10 10 10h142c5.522 0 10-4.477 10-10s-4.478-10-10-10zm224.995-139.68c-9.715-5.609-21.033-7.099-31.871-4.196-10.836 2.904-19.894 9.854-25.502 19.569L307.787 363.656a10.016 10.016 0 0 0-1.278 3.891l-8.858 79.344a10.004 10.004 0 0 0 9.937 11.11 9.99 9.99 0 0 0 5.931-1.948l64.284-47.344a9.983 9.983 0 0 0 2.73-3.052l125.841-217.963c11.58-20.056 4.684-45.794-15.372-57.374zM320.063 426.394l4.626-41.432 28.942 16.71-33.568 24.722zm48.15-39.398l-38.105-22 100.985-174.91 38.105 22-100.985 174.91zm120.841-209.303l-9.857 17.073-38.105-22 9.857-17.073a21.855 21.855 0 0 1 13.358-10.25 21.85 21.85 0 0 1 16.694 2.198 21.855 21.855 0 0 1 10.25 13.358 21.856 21.856 0 0 1-2.197 16.694z"/></symbol><symbol id="search" viewBox="0 0 56.966 56.966"><path d="M55.146 51.887L41.588 37.786A22.926 22.926 0 0 0 46.984 23c0-12.682-10.318-23-23-23s-23 10.318-23 23 10.318 23 23 23c4.761 0 9.298-1.436 13.177-4.162l13.661 14.208c.571.593 1.339.92 2.162.92.779 0 1.518-.297 2.079-.837a3.004 3.004 0 0 0 .083-4.242zM23.984 6c9.374 0 17 7.626 17 17s-7.626 17-17 17-17-7.626-17-17 7.626-17 17-17z"/></symbol><symbol id="shield" viewBox="0 0 512 512"><path d="M256 40.01a9.969 9.969 0 0 0-9.99 9.99 9.961 9.961 0 0 0 8.99 9.938A9.97 9.97 0 0 0 265.99 50c0-5.538-4.46-9.99-9.99-9.99z"/><path d="M456 60c-27.57 0-50-22.43-50-50 0-5.522-4.478-10-10-10H116c-5.522 0-10 4.478-10 10 0 27.57-22.43 50-50 50-5.522 0-10 4.478-10 10v163.19c0 127.177 82.895 241.135 207.128 278.389a9.997 9.997 0 0 0 5.745-.001C380.415 475.119 466 363.149 466 233.19V70c0-5.522-4.478-10-10-10zm-10 173.19c0 119.448-76.221 222.892-190 258.353C143.128 456.365 66 351.984 66 233.19V79.288C96.611 74.89 120.89 50.611 125.288 20h261.424C391.11 50.611 415.389 74.89 446 79.288V233.19z"/><path d="M420.012 92.49c-20.854-9.133-37.369-25.648-46.502-46.502A10 10 0 0 0 364.35 40h-68.37c-5.522 0-10 4.478-10 10s4.478 10 10 10h62.047A109.933 109.933 0 0 0 406 107.973V233.19c0 97.863-58.749 182.303-150 216.104-91.251-33.802-150-118.241-150-216.104V107.973A109.938 109.938 0 0 0 153.973 60h62.047c5.522 0 10-4.478 10-10s-4.478-10-10-10h-68.37a10.002 10.002 0 0 0-9.16 5.988c-9.133 20.854-25.648 37.369-46.502 46.502A10.003 10.003 0 0 0 86 101.65v131.54c0 107.213 66.311 200.653 166.664 236.166a9.993 9.993 0 0 0 6.672 0C359.605 433.873 426 340.49 426 233.19V101.65c0-3.972-2.351-7.566-5.988-9.16z"/><path d="M256 146c-49.626 0-90 40.374-90 90s40.374 90 90 90 90-40.374 90-90-40.374-90-90-90zm0 160c-38.598 0-70-31.402-70-70s31.402-70 70-70 70 31.402 70 70-31.402 70-70 70z"/><path d="M303.071 208.928c-3.906-3.904-10.236-3.904-14.143 0L246 251.857l-12.929-12.928c-3.906-3.904-10.236-3.904-14.143 0-3.905 3.905-3.905 10.237 0 14.143l20 20C240.882 275.023 243.44 276 246 276s5.118-.977 7.071-2.929l50-50c3.905-3.905 3.905-10.237 0-14.143z"/></symbol><symbol id="shipped" viewBox="0 0 512 512"><path d="M476.158 231.363l-13.259-53.035c3.625-.77 6.345-3.986 6.345-7.839v-8.551c0-18.566-15.105-33.67-33.67-33.67h-60.392V110.63c0-9.136-7.432-16.568-16.568-16.568H50.772c-9.136 0-16.568 7.432-16.568 16.568V256a8.017 8.017 0 0 0 16.034 0V110.63c0-.295.239-.534.534-.534h307.841c.295 0 .534.239.534.534v145.372a8.017 8.017 0 0 0 16.034 0v-9.088h94.569l.021.002.022-.001c11.637.008 21.518 7.646 24.912 18.171h-24.928a8.017 8.017 0 0 0-8.017 8.017v17.102c0 13.851 11.268 25.119 25.119 25.119h9.086v35.273h-20.962c-6.886-19.883-25.787-34.205-47.982-34.205s-41.097 14.322-47.982 34.205h-3.86v-60.393a8.017 8.017 0 0 0-16.034 0v60.391H192.817c-6.886-19.883-25.787-34.205-47.982-34.205s-41.097 14.322-47.982 34.205H50.772a.534.534 0 0 1-.534-.534v-17.637h34.739a8.017 8.017 0 0 0 0-16.034H8.017a8.017 8.017 0 0 0 0 16.034h26.188v17.637c0 9.136 7.432 16.568 16.568 16.568h43.304c-.002.178-.014.355-.014.534 0 27.996 22.777 50.772 50.772 50.772s50.772-22.776 50.772-50.772c0-.18-.012-.356-.014-.534h180.67c-.002.178-.014.355-.014.534 0 27.996 22.777 50.772 50.772 50.772 27.995 0 50.772-22.776 50.772-50.772 0-.18-.012-.356-.014-.534h26.203a8.017 8.017 0 0 0 8.017-8.017v-85.511c.001-21.112-15.576-38.653-35.841-41.738zm-100.976-87.062h60.392c9.725 0 17.637 7.912 17.637 17.637v.534h-78.029v-18.171zm0 86.58v-52.376h71.235l13.094 52.376h-84.329zM144.835 401.904c-19.155 0-34.739-15.583-34.739-34.739s15.584-34.739 34.739-34.739c19.155 0 34.739 15.583 34.739 34.739s-15.584 34.739-34.739 34.739zm282.188 0c-19.155 0-34.739-15.583-34.739-34.739s15.584-34.739 34.739-34.739c19.155 0 34.739 15.583 34.739 34.739s-15.584 34.739-34.739 34.739zm68.944-102.614h-9.086c-5.01 0-9.086-4.076-9.086-9.086v-9.086h18.171v18.172z"/><path d="M144.835 350.597c-9.136 0-16.568 7.432-16.568 16.568 0 9.136 7.432 16.568 16.568 16.568 9.136 0 16.568-7.432 16.568-16.568 0-9.136-7.432-16.568-16.568-16.568zm282.188 0c-9.136 0-16.568 7.432-16.568 16.568 0 9.136 7.432 16.568 16.568 16.568 9.136 0 16.568-7.432 16.568-16.568 0-9.136-7.432-16.568-16.568-16.568zm-94.063-34.204H213.244a8.017 8.017 0 0 0 0 16.034H332.96a8.017 8.017 0 0 0 0-16.034zm-205.227-34.205H25.119a8.017 8.017 0 0 0 0 16.034h102.614a8.017 8.017 0 0 0 0-16.034zM278.771 173.37a8.017 8.017 0 0 0-11.337.001l-71.292 71.291-37.087-37.087a8.016 8.016 0 0 0-11.337 0 8.016 8.016 0 0 0 0 11.337l42.756 42.756c1.565 1.566 3.617 2.348 5.668 2.348s4.104-.782 5.668-2.348l76.96-76.96a8.018 8.018 0 0 0 .001-11.338z"/></symbol><symbol id="shopping-cart" viewBox="0 0 100 100"><path d="M153 408c-28.05 0-51 22.95-51 51s22.95 51 51 51 51-22.95 51-51-22.95-51-51-51zM0 0v51h51l91.8 193.8-35.7 61.2c-2.55 7.65-5.1 17.85-5.1 25.5 0 28.05 22.95 51 51 51h306v-51H163.2c-2.55 0-5.1-2.55-5.1-5.1v-2.551l22.95-43.35h188.7c20.4 0 35.7-10.2 43.35-25.5L504.9 89.25c5.1-5.1 5.1-7.65 5.1-12.75 0-15.3-10.2-25.5-25.5-25.5H107.1L84.15 0H0zm408 408c-28.05 0-51 22.95-51 51s22.95 51 51 51 51-22.95 51-51-22.95-51-51-51z"/></symbol><symbol id="smartphone" viewBox="0 0 100 100"><path d="M25.3 0H9.7C8.4 0 7.3 1 7.3 2.4v30.2C7.3 34 8.4 35 9.7 35h15.6c1.3 0 2.4-1 2.4-2.4V2.4C27.7 1 26.6 0 25.3 0zM15 1.7h5a.3.3 0 0 1 0 .6h-5a.3.3 0 1 1 0-.6zm2.5 32.1a1.2 1.2 0 1 1 0-2.3 1.2 1.2 0 0 1 0 2.3zm8.5-3.2H9V3.7h17v27z"/></symbol><symbol id="smartphone_icon" viewBox="0 0 100 100"><path d="M368 0H144c-26.4 0-48 21.6-48 48v416c0 26.4 21.6 48 48 48h224c26.4 0 48-21.6 48-48V48c0-26.4-21.6-48-48-48zM192 24h128v16H192V24zm64 456c-17.673 0-32-14.327-32-32s14.327-32 32-32 32 14.327 32 32-14.327 32-32 32zm128-96H128V64h256v320z"/></symbol><symbol id="smartphone_icon1" viewBox="0 0 100 100"><path d="M368 0H144c-26.4 0-48 21.6-48 48v416c0 26.4 21.6 48 48 48h224c26.4 0 48-21.6 48-48V48c0-26.4-21.6-48-48-48zM192 24h128v16H192V24zm64 456a32 32 0 1 1 0-64 32 32 0 0 1 0 64zm128-96H128V64h256v320z"/></symbol><symbol id="star" viewBox="0 0 19.481 19.481"><path d="M10.201.758l2.478 5.865 6.344.545a.5.5 0 0 1 .285.876l-4.812 4.169 1.442 6.202a.5.5 0 0 1-.745.541l-5.452-3.288-5.452 3.288a.5.5 0 0 1-.745-.541l1.442-6.202-4.813-4.17a.5.5 0 0 1 .285-.876l6.344-.545L9.28.758a.5.5 0 0 1 .921 0z"/></symbol><symbol id="team" viewBox="0 0 512 512"><path d="M451.72 237.26c-17.422-8.71-50.087-8.811-51.469-8.811a7.5 7.5 0 0 0 0 15c8.429.001 32.902 1.299 44.761 7.228a7.502 7.502 0 0 0 6.708-13.417z"/><path d="M489.112 344.041l-30.975-8.85a3.145 3.145 0 0 1-2.271-3.011v-10.339a56.368 56.368 0 0 0 7.171-5.881c10.89-10.568 16.887-24.743 16.887-39.915v-14.267l2.995-5.989a47.846 47.846 0 0 0 5.024-21.286v-38.65a7.5 7.5 0 0 0-7.5-7.5H408.27c-26.244 0-47.596 21.352-47.596 47.596v.447a39.78 39.78 0 0 0 4.178 17.699l3.841 7.682v12.25c0 19.414 9.567 36.833 24.058 47.315l.002 10.836c0 1.671 0 2.363-6.193 4.133l-15.114 4.318-43.721-15.898a7.491 7.491 0 0 0-2.044-5.742l-13.971-14.678v-24.64a90.427 90.427 0 0 0 4.344-3.789c17.625-16.52 27.733-39.844 27.733-63.991v-19.678c5.322-11.581 8.019-23.836 8.019-36.457v-80.19a7.5 7.5 0 0 0-7.5-7.5H232.037c-39.51 0-71.653 32.144-71.653 71.653v16.039c0 12.621 2.697 24.876 8.019 36.457v16.931c0 28.036 12.466 53.294 32.077 69.946v25.22l-13.971 14.678a7.491 7.491 0 0 0-2.044 5.742l-46.145 16.779a39.33 39.33 0 0 0-9.272 4.858l-7.246-3.623c21.57-9.389 28.403-22.594 28.731-23.25a7.498 7.498 0 0 0 0-6.708c-5.407-10.814-6.062-30.635-6.588-46.561-.175-5.302-.341-10.311-.658-14.771-2.557-35.974-29.905-63.103-63.615-63.103s-61.059 27.128-63.615 63.103c-.317 4.461-.483 9.47-.658 14.773-.526 15.925-1.182 35.744-6.588 46.558a7.498 7.498 0 0 0 0 6.708c.328.656 7.147 13.834 28.76 23.234l-20.127 10.063C6.684 358.176 0 368.991 0 381.02v55.409a7.5 7.5 0 0 0 15 0V381.02c0-6.312 3.507-11.987 9.152-14.81l25.063-12.531 8.718 8.285a31.466 31.466 0 0 0 21.739 8.688 31.475 31.475 0 0 0 21.739-8.688l8.717-8.284 8.172 4.086c-3.848 6.157-6.032 13.377-6.032 20.94v57.725a7.5 7.5 0 0 0 15 0v-57.725c0-10.296 6.501-19.578 16.178-23.097l48.652-17.691 20.253 30.381a15.462 15.462 0 0 0 11.383 6.835 15.458 15.458 0 0 0 12.504-4.47l12.356-12.356v78.124a7.5 7.5 0 0 0 15 0v-78.124l12.356 12.356a15.452 15.452 0 0 0 10.957 4.547c.513 0 1.029-.025 1.546-.076a15.462 15.462 0 0 0 11.384-6.835l20.254-30.38 48.651 17.691c9.676 3.519 16.178 12.801 16.178 23.097v57.725a7.5 7.5 0 0 0 15 0v-57.725c0-10.428-4.143-20.208-11.093-27.441l1.853-.529c1.869-.534 4.419-1.265 6.979-2.52l19.149 19.149v69.066a7.5 7.5 0 0 0 15 0v-69.066l19.016-19.016c1.011.514 2.073.948 3.191 1.267l30.976 8.85c7.07 2.02 12.009 8.567 12.009 15.921v62.044a7.5 7.5 0 0 0 15 0v-62.044c0-14.018-9.412-26.497-22.888-30.348zM48.115 330.794c-14.029-5.048-21.066-11.778-24.07-15.453 2.048-5.354 3.376-11.486 4.275-17.959 4.136 9.917 11.063 18.383 19.795 24.423v8.989zm42.965 20.298c-6.397 6.078-16.418 6.077-22.813-.001l-6.975-6.628a15.518 15.518 0 0 0 1.824-7.324v-7.994a55.427 55.427 0 0 0 16.558 2.517c5.757 0 11.316-.886 16.557-2.512l-.001 7.988c0 2.62.646 5.121 1.824 7.327l-6.974 6.627zm-11.404-34.43c-22.396 0-40.615-18.22-40.615-40.615a7.5 7.5 0 0 0-7.5-7.5c-.42 0-.83.043-1.231.11l.065-1.93c.167-5.157.328-10.028.625-14.206.958-13.476 6.343-25.894 15.163-34.968 8.899-9.156 20.793-14.198 33.491-14.198s24.591 5.042 33.491 14.198c8.82 9.074 14.205 21.492 15.163 34.968.296 4.177.458 9.047.628 14.203l.045 1.338c-8.16-12.572-20.762-21.837-37.045-27.069-15.043-4.833-27.981-4.534-28.527-4.52a7.5 7.5 0 0 0-5.191 2.291l-13.532 14.034a7.5 7.5 0 1 0 10.798 10.412l11.26-11.677c9.697.474 40.894 4.102 53.027 30.819-3.053 19.688-19.975 34.31-40.115 34.31zm31.553 14.157l.001-8.945a55.477 55.477 0 0 0 19.801-24.449c.899 6.458 2.226 12.576 4.27 17.918-2.987 3.64-10.057 10.43-24.072 15.476zm72.174-121.674v-18.608a7.501 7.501 0 0 0-.746-3.261c-4.826-9.994-7.273-20.598-7.273-31.518V139.72c0-31.239 25.415-56.653 56.653-56.653h104.769v72.692c0 10.92-2.447 21.524-7.273 31.518a7.501 7.501 0 0 0-.746 3.261v21.355c0 20.311-8.165 39.15-22.991 53.047a74.636 74.636 0 0 1-5.758 4.875c-.044.03-.086.063-.129.094-13.889 10.545-30.901 15.67-48.667 14.519-38.041-2.463-67.839-35.531-67.839-75.283zm42.229 150.911c-.052.052-.173.175-.418.149a.477.477 0 0 1-.381-.229l-23.325-34.988 7.506-7.887 35.385 24.187-18.767 18.768zm30.463-28.943l-40.615-27.762v-14c10.509 5.681 22.276 9.234 34.791 10.044 1.977.128 3.942.191 5.901.191 14.341 0 28.143-3.428 40.538-9.935v13.7l-40.615 27.762zm31.262 28.865a.477.477 0 0 1-.381.229c-.245.031-.365-.098-.418-.149l-18.767-18.767 35.385-24.188 7.507 7.887-23.326 34.988zm136.951-6.328l-17.02-17.019c.297-1.349.465-2.826.464-4.455l-.001-3.165a52.589 52.589 0 0 0 16.579 2.65 55.71 55.71 0 0 0 16.536-2.501v3.02c0 1.496.188 2.962.542 4.371l-17.1 17.099zm28.283-48.454c-7.949 7.714-18.45 11.788-29.537 11.446-21.704-.651-39.361-19.768-39.361-42.613v-14.021a7.493 7.493 0 0 0-.792-3.354l-4.633-9.266a24.706 24.706 0 0 1-2.594-10.991v-.447c0-17.974 14.623-32.596 32.596-32.596h64.673v31.15a32.77 32.77 0 0 1-3.441 14.578l-3.786 7.572a7.496 7.496 0 0 0-.792 3.354v16.038c0 11.08-4.38 21.432-12.333 29.15z"/><path d="M472.423 380.814a7.5 7.5 0 0 0-7.5 7.5v48.115a7.5 7.5 0 0 0 15 0v-48.115a7.5 7.5 0 0 0-7.5-7.5zm-432.846 9.914a7.5 7.5 0 0 0-7.5 7.5v38.201a7.5 7.5 0 0 0 15 0v-38.201a7.5 7.5 0 0 0-7.5-7.5zm277.955-232.253c-28.366-28.366-87.715-22.943-111.917-19.295-7.623 1.149-13.155 7.6-13.155 15.339v17.278a7.5 7.5 0 0 0 15 0v-17.279c0-.255.168-.473.392-.507 9.667-1.457 28.85-3.705 48.725-2.38 23.388 1.557 40.328 7.428 50.349 17.45a7.5 7.5 0 0 0 10.606 0 7.5 7.5 0 0 0 0-10.606zM167.884 396.853a7.5 7.5 0 0 0-7.5 7.5v32.077a7.5 7.5 0 0 0 15 0v-32.077a7.5 7.5 0 0 0-7.5-7.5zm176.422 0a7.5 7.5 0 0 0-7.5 7.5v32.077a7.5 7.5 0 0 0 15 0v-32.077a7.5 7.5 0 0 0-7.5-7.5z"/></symbol><symbol id="trash-alt" viewBox="0 0 448 512"><path d="M0 84V56c0-13.3 10.7-24 24-24h112l9.4-18.7c4-8.2 12.3-13.3 21.4-13.3h114.3c9.1 0 17.4 5.1 21.5 13.3L312 32h112c13.3 0 24 10.7 24 24v28c0 6.6-5.4 12-12 12H12C5.4 96 0 90.6 0 84zm416 56v324c0 26.5-21.5 48-48 48H80c-26.5 0-48-21.5-48-48V140c0-6.6 5.4-12 12-12h360c6.6 0 12 5.4 12 12zm-272 68c0-8.8-7.2-16-16-16s-16 7.2-16 16v224c0 8.8 7.2 16 16 16s16-7.2 16-16V208zm96 0c0-8.8-7.2-16-16-16s-16 7.2-16 16v224c0 8.8 7.2 16 16 16s16-7.2 16-16V208zm96 0c0-8.8-7.2-16-16-16s-16 7.2-16 16v224c0 8.8 7.2 16 16 16s16-7.2 16-16V208z"/></symbol><symbol id="user" viewBox="0 0 512 512"><path d="M256 0c88.366 0 160 71.634 160 160s-71.634 160-160 160S96 248.366 96 160 167.634 0 256 0zm183.283 333.821l-71.313-17.828c-74.923 53.89-165.738 41.864-223.94 0l-71.313 17.828C29.981 344.505 0 382.903 0 426.955V464c0 26.51 21.49 48 48 48h416c26.51 0 48-21.49 48-48v-37.045c0-44.052-29.981-82.45-72.717-93.134z"/></symbol><symbol id="verified" viewBox="0 0 512 512"><path d="M361.858 161.858L216 307.716l-65.858-65.858c-7.81-7.811-20.473-7.81-28.284 0s-7.811 20.473 0 28.284l80 80C205.763 354.047 210.881 356 216 356s10.237-1.953 14.142-5.858l160-160c7.811-7.81 7.811-20.473 0-28.284-7.81-7.811-20.474-7.811-28.284 0z"/><path d="M452 0H60C26.916 0 0 26.916 0 60v392c0 33.084 26.916 60 60 60h392c33.084 0 60-26.916 60-60V60c0-33.084-26.916-60-60-60zm20 452c0 11.028-8.972 20-20 20H60c-11.028 0-20-8.972-20-20V60c0-11.028 8.972-20 20-20h392c11.028 0 20 8.972 20 20v392z"/></symbol><symbol id="wallet" viewBox="0 0 937.5 937.5"><path d="M921.875 62.5H875V15.625C875 6.992 868.008 0 859.375 0H595.672a97.844 97.844 0 0 0-80.047 41.688A97.834 97.834 0 0 0 435.578 0H171.875c-8.633 0-15.625 6.992-15.625 15.625V62.5h-46.875c-8.633 0-15.625 6.992-15.625 15.625V343.75H125v-250h31.25v250h31.25V31.25h248.078c30.027-.031 56.375 19.98 64.422 48.902V312.5h31.25V80.152c8.047-28.922 34.395-48.933 64.422-48.902H718.75v109.375c0 8.633 6.992 15.625 15.625 15.625H843.75v453.125H687.5v31.25h171.875c8.633 0 15.625-6.992 15.625-15.625V93.75h31.25l-2.535 576.914-216.215 1.211.152 31.25 231.785-1.293c8.594-.055 15.528-7.035 15.528-15.625l2.535-551.394V78.124c0-8.633-6.992-15.625-15.625-15.625zm-78.125 40.406L772.094 31.25h71.656zM750 125V53.344L821.656 125zm0 0"/><path d="M218.75 125h250v31.25h-250zm187.5 93.75h62.5V250h-62.5zm-187.5 0H375V250H218.75zm531.25 0h62.5V250H750zm-187.5 0h156.25V250H562.5zM750 312.5h62.5v31.25H750zm-187.5 0h156.25v31.25H562.5zM750 406.25h62.5v31.25H750zm-125 0h93.75v31.25H625zM750 500h62.5v31.25H750zm-125 0h93.75v31.25H625zm-62.5-375h125v31.25h-125zm0 0"/><path d="M78.125 937.5h500c8.633 0 15.625-6.992 15.625-15.625v-125h46.875c8.633 0 15.625-6.992 15.625-15.625V625c0-8.633-6.992-15.625-15.625-15.625H593.75v-218.75c0-8.633-6.992-15.625-15.625-15.625h-74.227l-4.27-19.047a15.657 15.657 0 0 0-7.355-10.062 15.62 15.62 0 0 0-12.386-1.48l-63.09 18.917-43.969-74.402c-4.39-7.434-13.98-9.899-21.402-5.504L196.438 375H78.124C35 375.055.055 410 0 453.125v406.25c.055 43.125 35 78.07 78.125 78.125zM625 765.625H515.625c-34.516 0-62.5-27.984-62.5-62.5s27.984-62.5 62.5-62.5H625zm-109.375-156.25c-51.766 0-93.75 41.984-93.75 93.75s41.984 93.75 93.75 93.75H562.5V906.25H78.125c-25.883 0-46.875-20.992-46.875-46.875v-343.75c.61.465 1.313.79 1.945 1.23 1.258.899 2.602 1.676 3.914 2.5a80.896 80.896 0 0 0 8.246 4.48c1.567.696 3.024 1.364 4.575 1.977a77.78 77.78 0 0 0 9.386 2.903c1.47.363 2.871.82 4.375 1.097a78.177 78.177 0 0 0 14.434 1.438H562.5v78.125zM562.5 406.25V500h-30.566l-20.996-93.75zM499.926 500H78.125a46.699 46.699 0 0 1-6.078-.61l400.746-120.214zM353.875 318.285l32.063 54.297-251.813 75.563zM78.125 406.25h65.426L34.707 470.582a46.334 46.334 0 0 1-3.457-17.457c0-25.883 20.992-46.875 46.875-46.875zm0 0"/><path d="M546.875 703.125c0 17.262-13.988 31.25-31.25 31.25s-31.25-13.988-31.25-31.25 13.988-31.25 31.25-31.25 31.25 13.988 31.25 31.25zM750 937.5c31.242-.148 59.398-18.805 71.719-47.516 2.156.176 4.215.641 6.406.641 39.094.023 72.18-28.86 77.453-67.586 5.281-38.738-18.89-75.406-56.562-85.832-37.68-10.43-77.262 8.594-92.657 44.527-2.12-.203-4.27-.484-6.359-.484-43.145 0-78.125 34.98-78.125 78.125S706.855 937.5 750 937.5zm78.125-171.875a46.889 46.889 0 0 1 43.066 27 46.87 46.87 0 0 1-6.847 50.363 46.88 46.88 0 0 1-48.719 14.508 1.848 1.848 0 0 0-.313-.168 46.996 46.996 0 0 1-24.515-16.703 44.916 44.916 0 0 1-3.328-5.152c-.39-.707-.793-1.414-1.149-2.149a41.457 41.457 0 0 1-2.015-4.574 43.806 43.806 0 0 1-1.239-3.992c-.363-1.367-.714-2.434-.937-3.703a45.21 45.21 0 0 1-.879-8.555c.059-25.867 21.008-46.816 46.875-46.875zM750 812.5a75.56 75.56 0 0 0 1.39 13.68c.25 1.48.57 2.918.923 4.347a75.897 75.897 0 0 0 2.824 9.098 73.01 73.01 0 0 0 2.734 6.422 77.194 77.194 0 0 0 4.117 7.578c1.285 2.035 2.664 3.95 4.121 5.86 1.036 1.343 2.13 2.624 3.23 3.906a78.115 78.115 0 0 0 20.614 16.843c.516.293.988.672 1.563.957-10.696 20.332-34.555 29.934-56.352 22.641-21.789-7.277-35.09-29.293-31.406-51.973 3.672-22.683 23.265-39.351 46.242-39.359zm0 0"/></symbol></svg>